<?xml version="1.0" encoding="UTF-8" standalone="no"?>
<!-- Created with Inkscape (http://www.inkscape.org/) -->

<svg
   xmlns:dc="http://purl.org/dc/elements/1.1/"
   xmlns:cc="http://creativecommons.org/ns#"
   xmlns:rdf="http://www.w3.org/1999/02/22-rdf-syntax-ns#"
   xmlns:svg="http://www.w3.org/2000/svg"
   xmlns="http://www.w3.org/2000/svg"
   xmlns:sodipodi="http://sodipodi.sourceforge.net/DTD/sodipodi-0.dtd"
   xmlns:inkscape="http://www.inkscape.org/namespaces/inkscape"
   id="svg2"
   version="1.1"
   inkscape:version="0.47 r22583"
   width="30.536995"
   height="15.99978"
   sodipodi:docname="army.svg">
  <metadata
     id="metadata8">
    <rdf:RDF>
      <cc:Work
         rdf:about="">
        <dc:format>image/svg+xml</dc:format>
        <dc:type
           rdf:resource="http://purl.org/dc/dcmitype/StillImage" />
        <dc:title />
      </cc:Work>
    </rdf:RDF>
  </metadata>
  <defs
     id="defs6">
    <inkscape:perspective
       sodipodi:type="inkscape:persp3d"
       inkscape:vp_x="0 : 0.5 : 1"
       inkscape:vp_y="0 : 1000 : 0"
       inkscape:vp_z="1 : 0.5 : 1"
       inkscape:persp3d-origin="0.5 : 0.33333333 : 1"
       id="perspective10" />
  </defs>
  <sodipodi:namedview
     pagecolor="#ffffff"
     bordercolor="#666666"
     borderopacity="1"
     objecttolerance="10"
     gridtolerance="10"
     guidetolerance="10"
     inkscape:pageopacity="0"
     inkscape:pageshadow="2"
     inkscape:window-width="1680"
     inkscape:window-height="1000"
     id="namedview4"
     showgrid="false"
     inkscape:zoom="40.170213"
     inkscape:cx="16.589397"
     inkscape:cy="8.3908493"
     inkscape:window-x="0"
     inkscape:window-y="25"
     inkscape:window-maximized="1"
     inkscape:current-layer="svg2" />
  <path
     id="shadow"
     d="M 1.5690266,15.900633 C 1.4813935,15.848733 1.3952008,15.815223 1.3774871,15.826173 C 1.2853267,15.883133 1.4007271,15.635263 1.98048,14.531003 L 2.6154896,13.321483 L 8.6036184,11.778913 C 11.89709,10.930503 14.636575,10.222473 14.691364,10.205523 C 14.766746,10.182183 14.80441,10.127133 14.846183,9.9792229 C 14.878758,9.8638929 14.88656,9.7689529 14.865215,9.7476129 C 14.843872,9.7262629 14.624621,9.8024829 14.33033,9.9335329 C 14.056036,10.055683 13.799141,10.155623 13.759453,10.155623 C 13.667447,10.155623 13.631288,10.082703 13.544509,9.7221429 C 13.489557,9.4938129 13.458282,9.4297929 13.4017,9.4297929 C 13.361853,9.4297929 13.025091,9.5568029 12.653339,9.7120529 C 12.281587,9.8673029 11.944792,9.9943229 11.904905,9.9943229 C 11.81004,9.9943229 11.750293,9.8768929 11.721507,9.6338329 C 11.702023,9.4693229 11.710643,9.4292029 11.773949,9.3897429 C 11.815617,9.3637729 12.484676,9.0667129 13.260746,8.7296029 C 14.247783,8.3008729 14.675781,8.0959329 14.68509,8.0476129 C 14.692408,8.0096129 14.669356,7.8786229 14.633865,7.7565429 C 14.583633,7.5837429 14.55161,7.5345529 14.489351,7.5345529 C 14.445362,7.5345529 14.206224,7.6162029 13.957933,7.7160229 C 13.489229,7.9044129 13.385222,7.9275629 13.339555,7.8536729 C 13.300101,7.7898329 13.079594,6.8198829 13.079594,6.7101729 C 13.079594,6.6589029 13.102276,6.5998929 13.129999,6.5790129 C 13.157721,6.5581329 14.087696,6.1990529 15.19661,5.7810429 C 16.305522,5.3630529 17.238426,4.9978129 17.269729,4.9694129 C 17.31794,4.9256429 17.294815,4.8741229 17.118514,4.6324929 C 17.004041,4.4756029 16.910383,4.3197629 16.910383,4.2861729 C 16.910383,4.2205829 17.212555,4.0730429 17.416791,4.0389229 C 17.533482,4.0194229 17.551662,4.0358929 17.754549,4.3449329 C 17.893712,4.5569029 17.99494,4.6715429 18.042948,4.6715429 C 18.083629,4.6715429 19.106875,4.3067929 20.316823,3.8609929 C 21.526771,3.4152029 22.541253,3.0598529 22.571223,3.0713529 C 22.606204,3.0847829 22.652119,3.2606129 22.699449,3.5624129 C 22.740004,3.8209929 22.79466,4.0619329 22.820909,4.0978329 C 22.863397,4.1559329 23.169404,4.0471329 25.608584,3.1067029 C 27.115554,2.5257029 28.429975,2.0225729 28.529516,1.9886429 C 28.680241,1.9372929 28.725365,1.8963929 28.7994,1.7439929 C 28.884556,1.5687229 28.911594,1.5499629 29.441925,1.2981629 C 29.746421,1.1536029 30.040741,1.0323729 30.095968,1.0287729 C 30.192117,1.0225029 30.200368,1.0410529 30.290212,1.4657729 C 30.341818,1.7097429 30.410375,1.9954229 30.44256,2.1006329 C 30.474746,2.2058429 30.512289,2.3736929 30.525987,2.4736329 C 30.547177,2.6282329 30.540549,2.6553429 30.481555,2.6553429 C 30.443418,2.6553429 30.172655,2.7551329 29.879856,2.8771229 C 29.33025,3.1060929 29.203326,3.1311529 28.987876,3.0532329 C 28.869496,3.0104429 28.70452,3.0733129 26.34974,4.0587429 C 24.968218,4.6368829 23.832389,5.1156229 23.825676,5.1225929 C 23.787651,5.1620829 23.797761,5.2971829 23.864699,5.6440229 C 23.905862,5.8572929 23.929392,6.0569029 23.91699,6.0875829 C 23.904588,6.1182729 22.958132,6.5310229 21.813755,7.0048429 C 19.794792,7.8407529 19.73307,7.8695329 19.73307,7.9749029 C 19.73307,8.0346129 19.850294,8.5968129 19.993567,9.2242129 C 20.302966,10.579083 20.337932,10.808173 20.337932,11.480213 C 20.337932,12.182713 20.279845,12.598073 20.108688,13.119443 C 19.898248,13.760483 19.670624,14.130243 19.198508,14.597993 C 18.891044,14.902623 18.736841,15.021573 18.492831,15.142373 L 18.180593,15.296933 L 17.492978,15.296933 L 16.805361,15.296933 L 16.525198,15.157343 C 16.19336,14.991973 15.695532,14.561643 15.434573,14.214573 C 15.191287,13.891013 14.913828,13.335203 14.831016,13.005543 C 14.78769,12.833053 14.742516,12.738113 14.698657,12.727333 C 14.641546,12.713323 3.761554,14.611363 3.4824577,14.684053 C 3.3889417,14.708403 1.986808,15.887483 1.9568625,15.966943 C 1.9326278,16.031253 1.7315016,15.996873 1.5690266,15.900633 z"
     style="fill:#000000;fill-opacity:0.53333285" />
  <path
     style="fill:#000000;fill-opacity:1;stroke:#000000;stroke-width:0;stroke-miterlimit:4;stroke-opacity:1;stroke-dasharray:none"
     d="M 0.21987776,14.872723 C 0.13224463,14.820813 0.04605187,14.787303 0.02833836,14.798253 C -0.06382208,14.855213 0.05157835,14.607333 0.63133127,13.503063 L 1.2663406,12.293553 L 7.25447,10.750983 C 10.547941,9.9025829 13.287427,9.1945629 13.342215,9.1775929 C 13.417598,9.1542529 13.455262,9.0992129 13.497034,8.9513029 C 13.529609,8.8359729 13.537412,8.7410329 13.516067,8.7196929 C 13.494724,8.6983429 13.275473,8.7745529 12.981182,8.9056029 C 12.706887,9.0277629 12.449993,9.1276929 12.410305,9.1276929 C 12.318299,9.1276929 12.28214,9.0547729 12.195361,8.6942029 C 12.140407,8.4658829 12.109134,8.4018629 12.052551,8.4018629 C 12.012705,8.4018629 11.675942,8.5288829 11.30419,8.6841329 C 10.932438,8.8393729 10.595643,8.9664029 10.555757,8.9664029 C 10.460892,8.9664029 10.401145,8.8489529 10.372359,8.6059229 C 10.352875,8.4413929 10.361495,8.4012629 10.424801,8.3618129 C 10.466468,8.3358329 11.135527,8.0387829 11.911597,7.7016829 C 12.898633,7.2729429 13.326632,7.0680129 13.335941,7.0196829 C 13.343259,6.9816729 13.320207,6.8507029 13.284716,6.7286129 C 13.234484,6.5558229 13.202461,6.5066329 13.140203,6.5066329 C 13.096213,6.5066329 12.857076,6.5882929 12.608785,6.6880829 C 12.140081,6.8764829 12.036074,6.8996429 11.990407,6.8257629 C 11.950952,6.7619129 11.730445,5.7919629 11.730445,5.6822529 C 11.730445,5.6309929 11.753127,5.5719629 11.780851,5.5510829 C 11.808573,5.5302029 12.738548,5.1711229 13.84746,4.7531229 C 14.956373,4.3351329 15.889277,3.9698929 15.92058,3.9414729 C 15.968791,3.8977329 15.945667,3.8462029 15.769366,3.6045629 C 15.654892,3.4476829 15.561235,3.2918329 15.561235,3.2582429 C 15.561235,3.1926629 15.863407,3.0451329 16.067642,3.0109929 C 16.184333,2.9915029 16.202514,3.0079729 16.4054,3.3170029 C 16.544563,3.5289829 16.645792,3.6436229 16.693799,3.6436229 C 16.734482,3.6436229 17.757727,3.2788829 18.967674,2.8330729 C 20.177623,2.3872629 21.192104,2.0319329 21.222074,2.0434329 C 21.257056,2.0568629 21.302971,2.2327029 21.3503,2.5344829 C 21.390855,2.7930729 21.445511,3.0340029 21.471761,3.0698929 C 21.514248,3.1280029 21.820255,3.0192129 24.259436,2.0787829 C 25.766406,1.4977629 27.080826,0.99463293 27.180368,0.96073293 C 27.331092,0.90937293 27.376216,0.86846293 27.450251,0.71608293 C 27.535407,0.54080293 27.562446,0.52203293 28.092777,0.27025293 C 28.397272,0.12568293 28.691592,0.00445293 28.746819,8.3292621e-4 C 28.842969,-0.00543707 28.85122,0.01313293 28.941063,0.43785293 C 28.992669,0.68181293 29.061226,0.96750293 29.093412,1.0727129 C 29.125598,1.1779129 29.16314,1.3457629 29.176838,1.4457029 C 29.198029,1.6003029 29.191401,1.6274129 29.132407,1.6274129 C 29.094269,1.6274129 28.823507,1.7272229 28.530707,1.8491929 C 27.981102,2.0781629 27.854177,2.1032229 27.638727,2.0253229 C 27.520348,1.9825029 27.355372,2.0453929 25.000592,3.0308329 C 23.619069,3.6089729 22.483241,4.0876929 22.476527,4.0946729 C 22.438502,4.1341729 22.448613,4.2692629 22.515551,4.6160929 C 22.556711,4.8293729 22.580244,5.0289729 22.567842,5.0596529 C 22.55544,5.0903429 21.608983,5.5031129 20.464607,5.9769229 C 18.445644,6.8128329 18.383922,6.8416129 18.383922,6.9469729 C 18.383922,7.0066929 18.501146,7.5688929 18.644418,8.1962929 C 18.953815,9.5511729 18.988783,9.7802329 18.988783,10.452283 C 18.988783,11.154793 18.930697,11.570143 18.759539,12.091513 C 18.549099,12.732553 18.321475,13.102323 17.84936,13.570073 C 17.541896,13.874683 17.387692,13.993643 17.143683,14.114443 L 16.831445,14.269023 L 16.143829,14.269023 L 15.456213,14.269023 L 15.17605,14.129403 C 14.844212,13.964053 14.346384,13.533723 14.085424,13.186653 C 13.842139,12.863103 13.56468,12.307293 13.481868,11.977613 C 13.438541,11.805143 13.393367,11.710193 13.349509,11.699413 C 13.292398,11.685393 2.4124054,13.583453 2.1333088,13.656123 C 2.0397928,13.680463 0.6376593,14.859543 0.60771381,14.939023 C 0.58347896,15.003343 0.38235294,14.968953 0.21987776,14.872723 z"
     id="body" />
</svg>
