<?xml version="1.0" encoding="UTF-8" standalone="no"?>
<!-- Created with Inkscape (http://www.inkscape.org/) -->

<svg
   xmlns:dc="http://purl.org/dc/elements/1.1/"
   xmlns:cc="http://creativecommons.org/ns#"
   xmlns:rdf="http://www.w3.org/1999/02/22-rdf-syntax-ns#"
   xmlns:svg="http://www.w3.org/2000/svg"
   xmlns="http://www.w3.org/2000/svg"
   xmlns:sodipodi="http://sodipodi.sourceforge.net/DTD/sodipodi-0.dtd"
   xmlns:inkscape="http://www.inkscape.org/namespaces/inkscape"
   id="svg2"
   version="1.1"
   inkscape:version="0.47 r22583"
   width="52.42252"
   height="12.37351"
   sodipodi:docname="agoutline.gif">
  <metadata
     id="metadata8">
    <rdf:RDF>
      <cc:Work
         rdf:about="">
        <dc:format>image/svg+xml</dc:format>
        <dc:type
           rdf:resource="http://purl.org/dc/dcmitype/StillImage" />
        <dc:title></dc:title>
      </cc:Work>
    </rdf:RDF>
  </metadata>
  <defs
     id="defs6">
    <inkscape:perspective
       sodipodi:type="inkscape:persp3d"
       inkscape:vp_x="0 : 0.5 : 1"
       inkscape:vp_y="0 : 1000 : 0"
       inkscape:vp_z="1 : 0.5 : 1"
       inkscape:persp3d-origin="0.5 : 0.33333333 : 1"
       id="perspective10" />
  </defs>
  <sodipodi:namedview
     pagecolor="#ffffff"
     bordercolor="#666666"
     borderopacity="1"
     objecttolerance="10"
     gridtolerance="10"
     guidetolerance="10"
     inkscape:pageopacity="0"
     inkscape:pageshadow="2"
     inkscape:window-width="1680"
     inkscape:window-height="1000"
     id="namedview4"
     showgrid="false"
     inkscape:zoom="22.873998"
     inkscape:cx="26.080703"
     inkscape:cy="6.9619859"
     inkscape:window-x="0"
     inkscape:window-y="25"
     inkscape:window-maximized="1"
     inkscape:current-layer="svg2" />
  <path
     style="fill:#000000;fill-opacity:0.53333291"
     d="M 27.241411,12.37002 L 1.0797762,12.373511 L 1.9293162,12.296244 L 2.7788566,12.218977 L 2.9643996,11.6837 C 3.0664483,11.389298 3.1556035,10.997878 3.1625222,10.813876 L 3.1751017,10.479328 L 3.3095077,10.847331 L 3.4439138,11.215333 L 6.1839514,11.215333 L 8.9239894,11.215333 L 8.8412844,11.081514 L 8.7585794,10.947695 L 7.8966532,10.947695 L 7.0347265,10.947695 L 7.0347265,10.833954 L 7.0347265,10.720213 L 8.6071011,10.624554 C 9.4719067,10.57194 10.42035,10.479503 10.714752,10.419135 L 11.250028,10.309378 L 10.27984,10.293989 L 9.3096511,10.278599 L 9.3096511,10.14478 L 9.3096511,10.010961 L 10.237673,10.010961 L 11.165695,10.010961 L 11.475997,9.8929845 C 11.646663,9.8280965 12.177495,9.7528235 12.655626,9.7257105 L 13.524952,9.6764135 L 13.565722,10.028094 L 13.60649,10.379774 L 14.100998,10.466282 C 14.372977,10.513863 15.212746,10.5905 15.967151,10.636587 L 17.338798,10.720382 L 17.338798,10.104683 L 17.338798,9.4889835 L 17.554174,9.3684525 L 17.76955,9.2479225 L 17.536406,9.1584575 L 17.303263,9.0689905 L 17.647033,8.7705165 L 17.990805,8.4720415 L 18.043763,7.9367645 L 18.096721,7.4014885 L 18.119217,8.0371295 L 18.141712,8.6727695 L 18.308986,8.6907965 C 18.400986,8.7007105 18.656915,8.7157655 18.877717,8.7242515 L 19.279174,8.7396795 L 19.411271,9.0407725 L 19.543368,9.3418655 L 19.779274,9.3418655 L 20.015179,9.3418655 L 20.017006,8.5724055 C 20.018011,8.1492025 20.055145,7.6674545 20.099524,7.5018535 L 20.180213,7.2007605 L 20.750064,7.2007605 L 21.319916,7.2007605 L 21.403553,7.6189445 C 21.449553,7.8489465 21.48719,8.2258815 21.48719,8.4565785 L 21.48719,8.8760295 L 21.754828,9.0431715 L 22.022466,9.2103145 L 22.022466,9.7444575 L 22.022466,10.278599 L 22.524288,10.294011 C 22.80029,10.302485 23.146547,10.299612 23.293748,10.287624 C 23.440949,10.275637 23.711932,10.210254 23.895934,10.142329 C 24.079935,10.074404 24.621902,9.9930455 25.100305,9.9615355 L 25.97013,9.9042435 L 25.930272,9.6349085 L 25.890414,9.3655755 L 26.030636,9.2789125 C 26.107758,9.2312495 26.170858,9.1029355 26.170858,8.9937725 L 26.170858,8.7952945 L 23.996298,8.8127965 L 21.821737,8.8302985 L 21.818907,8.7180795 C 21.817351,8.6563595 22.028116,8.4643825 22.287274,8.2914665 C 22.546432,8.1185475 22.942748,7.8174545 23.167975,7.6223695 C 23.393202,7.4272845 23.281832,7.5553525 22.920484,7.9069645 L 22.263489,8.5462585 L 24.250629,8.5091495 L 26.237768,8.4720415 L 26.275342,6.8327575 L 26.312915,5.1934735 L 26.217057,5.1934735 C 26.164334,5.1934735 25.968993,5.3289655 25.782966,5.4945665 L 25.444734,5.7956595 L 25.877653,5.2858255 L 26.310569,4.7759925 L 26.232817,4.6501855 L 26.155064,4.5243775 L 26.29678,4.5243775 L 26.438497,4.5243775 L 26.460134,3.6210985 L 26.481772,2.7178195 L 26.576463,3.7214625 C 26.628542,4.2734675 26.679025,5.7001045 26.688645,6.8917695 L 26.706135,9.0584325 L 26.839954,9.1411365 L 26.973773,9.2238425 L 26.973773,9.5851365 L 26.973773,9.9464315 L 28.077781,9.9855945 L 29.181788,10.024755 L 29.226394,10.151678 L 29.271001,10.278599 L 29.962399,10.276773 C 30.342669,10.275768 30.78929,10.238635 30.954891,10.194256 L 31.255984,10.113566 L 31.255984,9.8025235 L 31.255984,9.4914805 L 31.389803,9.4087745 L 31.523623,9.3260705 L 31.523623,8.6146895 C 31.523623,8.2234305 31.561259,7.7151265 31.607259,7.4851255 L 31.690897,7.0669405 L 32.410174,7.0669405 L 33.129452,7.0669405 L 33.129452,7.6022175 L 33.129452,8.1374945 L 33.258114,8.1374945 L 33.386774,8.1374945 L 33.540959,7.5687625 C 33.62576,7.2559605 33.766412,6.7270785 33.853519,6.3934685 L 34.011896,5.7869055 L 33.958074,5.2225515 L 33.904255,4.6581965 L 33.65857,4.6581965 L 33.412885,4.6581965 L 33.330305,4.5245785 L 33.247724,4.3909595 L 33.55659,4.4242145 L 33.865457,4.4574675 L 34.01235,2.6509105 C 34.093142,1.6573035 34.172038,0.90457154 34.187676,0.97817154 C 34.203314,1.0517725 34.209135,1.7292305 34.200614,2.4836365 L 34.185117,3.8552825 L 34.649776,3.8552825 L 35.114435,3.8552825 L 35.16477,3.7042785 L 35.215104,3.5532745 L 35.362715,4.0342315 L 35.510324,4.5151885 L 35.253972,4.5965515 L 34.99762,4.6779145 L 35.286264,4.9116455 L 35.574909,5.1453755 L 35.054731,5.4615555 L 34.534552,5.7777355 L 34.768736,5.8299645 C 34.897537,5.8586905 35.00292,5.9315535 35.00292,5.9918825 C 35.00292,6.0522125 34.912592,6.1362345 34.802191,6.1785995 L 34.601462,6.2556265 L 34.601462,6.9004445 L 34.601462,7.5452625 L 34.861285,7.5648345 L 35.12111,7.5844065 L 35.174418,7.1583995 L 35.227726,6.7323935 L 35.249141,7.1588915 L 35.270558,7.5853905 L 35.738925,7.5093855 L 36.207291,7.4333795 L 36.207291,7.7280855 L 36.207291,8.0227915 L 36.006563,8.2235205 C 35.896162,8.3339205 35.805834,8.5102765 35.805834,8.6154185 L 35.805834,8.8065895 L 36.274201,8.8065895 L 36.742568,8.8065895 L 36.742568,9.4087745 L 36.742568,10.010961 L 37.11057,9.9927375 L 37.478573,9.9745135 L 37.17748,9.9165205 L 36.876387,9.8585275 L 36.876387,9.4663775 L 36.876387,9.0742275 L 38.005951,9.0742275 L 39.135517,9.0742275 L 39.218222,9.2080465 L 39.300925,9.3418655 L 40.430491,9.3418655 L 41.560056,9.3418655 L 41.560056,9.4698225 L 41.560056,9.5977785 L 40.589867,9.6370955 L 39.619678,9.6764135 L 39.59497,10.010961 L 39.570261,10.345509 L 39.640008,10.102127 L 39.709755,9.8587445 L 40.869089,9.9329285 C 41.506722,9.9737305 42.525226,10.042673 43.13243,10.086137 L 44.236438,10.165161 L 44.236438,10.28879 L 44.236438,10.412419 L 43.299704,10.412419 L 42.36297,10.412419 L 42.36297,10.546238 L 42.36297,10.680057 L 46.503465,10.680057 L 50.64396,10.680057 L 50.726665,10.546238 C 50.772152,10.472637 50.896143,10.412419 51.002201,10.412419 L 51.195031,10.412419 L 51.19708,11.181878 L 51.19913,11.951338 L 51.301351,12.112154 L 51.403571,12.272968 L 52.403309,12.319748 C 52.953164,12.345476 41.63031,12.368098 27.241411,12.37002 z M 16.725666,11.349153 C 17.19805,11.349153 17.679799,11.312601 17.796219,11.267925 C 17.91264,11.223252 18.007893,11.132924 18.007893,11.067197 L 18.007893,10.947695 L 16.93734,10.947695 L 15.866787,10.947695 L 15.866787,11.148423 L 15.866787,11.349153 L 16.725666,11.349153 z M 24.377949,6.6893165 L 23.695205,7.2401835 L 24.169402,6.7855605 C 24.43021,6.5355165 24.819809,6.1803895 25.035176,5.9963875 L 25.426754,5.6618405 L 25.243723,5.9001455 C 25.143057,6.0312135 24.753458,6.3863405 24.377949,6.6893165 z"
     id="shadow" />
  <path
     id="hull"
     d="M 26.161635,11.396817 L 0,11.40031 L 0.8495401,11.323043 L 1.6990803,11.245775 L 1.8846233,10.710499 C 1.986672,10.416097 2.0758273,10.024676 2.082746,9.8406745 L 2.0953256,9.5061265 L 2.2297316,9.8741295 L 2.3641376,10.242132 L 5.1041752,10.242132 L 7.8442133,10.242132 L 7.7615082,10.108313 L 7.6788032,9.9744935 L 6.8168769,9.9744935 L 5.9549503,9.9744935 L 5.9549503,9.8607525 L 5.9549503,9.7470115 L 7.5273248,9.6513515 C 8.3921309,9.5987385 9.3405736,9.5063005 9.6349757,9.4459335 L 10.170252,9.3361765 L 9.2000639,9.3207865 L 8.2298749,9.3053975 L 8.2298749,9.1715785 L 8.2298749,9.0377595 L 9.1578971,9.0377595 L 10.08592,9.0377595 L 10.396221,8.9197825 C 10.566887,8.8548965 11.097719,8.7796225 11.575849,8.7525095 L 12.445177,8.7032115 L 12.485945,9.0548925 L 12.526713,9.4065725 L 13.021222,9.4930805 C 13.293201,9.5406605 14.132971,9.6172975 14.887376,9.6633845 L 16.259021,9.7471805 L 16.259021,9.1314815 L 16.259021,8.5157825 L 16.474398,8.3952515 L 16.689774,8.2747205 L 16.456631,8.1852555 L 16.223487,8.0957895 L 16.567258,7.7973145 L 16.91103,7.4988395 L 16.963988,6.9635635 L 17.016945,6.4282875 L 17.039441,7.0639275 L 17.061936,7.6995685 L 17.22921,7.7175945 C 17.321211,7.7275095 17.57714,7.7425645 17.797941,7.7510495 L 18.199399,7.7664775 L 18.331496,8.0675715 L 18.463593,8.3686635 L 18.699498,8.3686635 L 18.935404,8.3686635 L 18.93723,7.5992035 C 18.938235,7.1760015 18.975368,6.6942525 19.019749,6.5286515 L 19.100438,6.2275585 L 19.670289,6.2275585 L 20.24014,6.2275585 L 20.323777,6.6457435 C 20.369777,6.8757445 20.407414,7.2526805 20.407414,7.4833775 L 20.407414,7.9028275 L 20.675052,8.0699695 L 20.94269,8.2371135 L 20.94269,8.7712555 L 20.94269,9.3053975 L 21.444512,9.3208075 C 21.720514,9.3292835 22.066771,9.3264095 22.213972,9.3144225 C 22.361173,9.3024355 22.632156,9.2370525 22.816158,9.1691265 C 23.000159,9.1012005 23.542127,9.0198445 24.02053,8.9883335 L 24.890354,8.9310415 L 24.850496,8.6617075 L 24.810638,8.3923745 L 24.950861,8.3057125 C 25.027983,8.2580475 25.091083,8.1297345 25.091083,8.0205715 L 25.091083,7.8220935 L 22.916522,7.8395955 L 20.741962,7.8570975 L 20.739132,7.7448785 C 20.737575,7.6831575 20.94834,7.4911805 21.207498,7.3182635 C 21.466657,7.1453455 21.862972,6.8442525 22.0882,6.6491675 C 22.313426,6.4540825 22.202057,6.5821505 21.840709,6.9337625 L 21.183713,7.5730565 L 23.170853,7.5359485 L 25.157992,7.4988395 L 25.195566,5.8595555 L 25.23314,4.2202715 L 25.137281,4.2202715 C 25.084559,4.2202715 24.889218,4.3557635 24.703191,4.5213645 L 24.364959,4.8224575 L 24.797877,4.3126245 L 25.230794,3.8027905 L 25.153041,3.6769835 L 25.075288,3.5511755 L 25.217004,3.5511755 L 25.358721,3.5511755 L 25.380358,2.6478965 L 25.401997,1.7446185 L 25.496687,2.7482615 C 25.548767,3.3002655 25.599248,4.7269025 25.608869,5.9185675 L 25.626359,8.0852305 L 25.760178,8.1679355 L 25.893997,8.2506405 L 25.893997,8.6119355 L 25.893997,8.9732315 L 26.998005,9.0123925 L 28.102013,9.0515535 L 28.146618,9.1784755 L 28.191226,9.3053975 L 28.882624,9.3035705 C 29.262894,9.3025655 29.709515,9.2654325 29.875116,9.2210535 L 30.176209,9.1403635 L 30.176209,8.8293215 L 30.176209,8.5182785 L 30.310028,8.4355735 L 30.443847,8.3528685 L 30.443847,7.6414895 C 30.443847,7.2502295 30.481484,6.7419255 30.527484,6.5119235 L 30.611121,6.0937385 L 31.330399,6.0937385 L 32.049676,6.0937385 L 32.049676,6.6290155 L 32.049676,7.1642925 L 32.178338,7.1642925 L 32.306998,7.1642925 L 32.461184,6.5955605 C 32.545985,6.2827585 32.686636,5.7538765 32.773744,5.4202665 L 32.932119,4.8137035 L 32.878299,4.2493495 L 32.82448,3.6849955 L 32.578795,3.6849955 L 32.333109,3.6849955 L 32.25053,3.5513765 L 32.167948,3.4177575 L 32.476815,3.4510125 L 32.785681,3.4842665 L 32.932574,1.6777085 C 33.013366,0.68410154 33.092262,-0.06863046 33.107901,0.00496954 C 33.123538,0.07857054 33.129359,0.75602954 33.120838,1.5104345 L 33.105342,2.8820805 L 33.570001,2.8820805 L 34.034659,2.8820805 L 34.084994,2.7310765 L 34.135329,2.5800725 L 34.282939,3.0610295 L 34.430549,3.5419865 L 34.174196,3.6233495 L 33.917845,3.7047125 L 34.206488,3.9384435 L 34.495134,4.1721745 L 33.974956,4.4883535 L 33.454777,4.8045345 L 33.68896,4.8567625 C 33.817761,4.8854885 33.923144,4.9583525 33.923144,5.0186815 C 33.923144,5.0790105 33.832816,5.1630325 33.722415,5.2053975 L 33.521686,5.2824245 L 33.521686,5.9272425 L 33.521686,6.5720615 L 33.78151,6.5916325 L 34.041334,6.6112055 L 34.094642,6.1851985 L 34.14795,5.7591915 L 34.169365,6.1856905 L 34.190782,6.6121895 L 34.659149,6.5361835 L 35.127516,6.4601775 L 35.127516,6.7548845 L 35.127516,7.0495895 L 34.926787,7.2503185 C 34.816386,7.3607195 34.726058,7.5370735 34.726058,7.6422175 L 34.726058,7.8333875 L 35.194425,7.8333875 L 35.662792,7.8333875 L 35.662792,8.4355735 L 35.662792,9.0377595 L 36.030795,9.0195355 L 36.398797,9.0013125 L 36.097704,8.9433185 L 35.796612,8.8853265 L 35.796612,8.4931755 L 35.796612,8.1010265 L 36.926176,8.1010265 L 38.055741,8.1010265 L 38.138445,8.2348445 L 38.22115,8.3686635 L 39.350716,8.3686635 L 40.48028,8.3686635 L 40.48028,8.4966205 L 40.48028,8.6245775 L 39.510091,8.6638945 L 38.539903,8.7032115 L 38.515195,9.0377595 L 38.490485,9.3723075 L 38.560233,9.1289245 L 38.629979,8.8855425 L 39.789313,8.9597265 C 40.426947,9.0005275 41.44545,9.0694715 42.052654,9.1129345 L 43.156662,9.1919585 L 43.156662,9.3155875 L 43.156662,9.4392165 L 42.219928,9.4392165 L 41.283194,9.4392165 L 41.283194,9.5730365 L 41.283194,9.7068555 L 45.423689,9.7068555 L 49.564185,9.7068555 L 49.646889,9.5730365 C 49.692377,9.4994355 49.816368,9.4392165 49.922425,9.4392165 L 50.115256,9.4392165 L 50.117305,10.208677 L 50.119355,10.978137 L 50.221575,11.138952 L 50.323796,11.299767 L 51.323534,11.346546 C 51.873389,11.372274 40.550535,11.394897 26.161635,11.396817 z M 15.64589,10.375951 C 16.118275,10.375951 16.600023,10.339399 16.716444,10.294724 C 16.832865,10.25005 16.928117,10.159722 16.928117,10.093996 L 16.928117,9.9744935 L 15.857564,9.9744935 L 14.787012,9.9744935 L 14.787012,10.175222 L 14.787012,10.375951 L 15.64589,10.375951 z M 23.298173,5.7161155 L 22.615429,6.2669825 L 23.089626,5.8123585 C 23.350434,5.5623145 23.740033,5.2071875 23.9554,5.0231865 L 24.346979,4.6886385 L 24.163948,4.9269435 C 24.063281,5.0580115 23.673683,5.4131385 23.298173,5.7161155 z"
     style="fill:#000000;fill-opacity:1;stroke:#000000;stroke-width:0;stroke-miterlimit:4;stroke-opacity:1;stroke-dasharray:none" />
</svg>
